<?xml version="1.0" encoding="utf-8"?>
<!-- Generated by Mocodo 4.2.11 -->
<svg width="667" height="455" viewBox="0 0 667 455" xmlns="http://www.w3.org/2000/svg">
<rect x="0" y="0" width="667" height="455" fill="#ffffff" stroke="none" stroke-width="0"/>

<!-- Association PLAYS_SOLO_USER -->
<g>
	<line x1="234" y1="68" x2="78" y2="68" stroke="#878787" stroke-width="2"/>
	<line x1="78" y1="177" x2="78" y2="68" stroke="#878787" stroke-width="2"/>
	<g>
		<path d="M132 43 a14 14 90 0 1 14 14 V68 h-136 V57 a14 14 90 0 1 14 -14" fill="#bababa" stroke="#bababa" stroke-width="0"/>
		<path d="M146 68 v11 a14 14 90 0 1 -14 14 H24 a14 14 90 0 1 -14 -14 V68 H136" fill="#e0e0e0" stroke="#e0e0e0" stroke-width="0"/>
		<rect x="10" y="43" width="136" height="50" fill="none" rx="14" stroke="#878787" stroke-width="2"/>
		<line x1="10" y1="68" x2="146" y2="68" stroke="#878787" stroke-width="1"/>
		<text x="18" y="60.75" fill="#000000" font-family="Verdana" font-size="12">PLAYS_SOLO_USER</text>
	</g>
	<text x="163" y="85" fill="#b2182b" font-family="Verdana" font-size="12">1,1</text>
	<text x="83" y="127" fill="#b2182b" font-family="Verdana" font-size="12">0,N</text>
</g>

<!-- Association IN_LEADERBOARD_USER -->
<g>
	<line x1="234" y1="68" x2="395" y2="68" stroke="#878787" stroke-width="2"/>
	<line x1="566" y1="68" x2="395" y2="68" stroke="#878787" stroke-width="2"/>
	<g>
		<path d="M465 43 a14 14 90 0 1 14 14 V68 h-168 V57 a14 14 90 0 1 14 -14" fill="#bababa" stroke="#bababa" stroke-width="0"/>
		<path d="M479 68 v11 a14 14 90 0 1 -14 14 H325 a14 14 90 0 1 -14 -14 V68 H168" fill="#e0e0e0" stroke="#e0e0e0" stroke-width="0"/>
		<rect x="311" y="43" width="168" height="50" fill="none" rx="14" stroke="#878787" stroke-width="2"/>
		<line x1="311" y1="68" x2="479" y2="68" stroke="#878787" stroke-width="1"/>
		<text x="318" y="60.75" fill="#000000" font-family="Verdana" font-size="12">IN_LEADERBOARD_USER</text>
	</g>
	<text x="284" y="60" fill="#b2182b" font-family="Verdana" font-size="12">1,N</text>
	<text x="484" y="85" fill="#b2182b" font-family="Verdana" font-size="12">0,N</text>
</g>

<!-- Association PLAYS_DUEL_USER -->
<g>
	<line x1="234" y1="68" x2="234" y2="177" stroke="#878787" stroke-width="2"/>
	<line x1="234" y1="278" x2="234" y2="177" stroke="#878787" stroke-width="2"/>
	<g>
		<path d="M287 152 a14 14 90 0 1 14 14 V177 h-134 V166 a14 14 90 0 1 14 -14" fill="#bababa" stroke="#bababa" stroke-width="0"/>
		<path d="M301 177 v11 a14 14 90 0 1 -14 14 H181 a14 14 90 0 1 -14 -14 V177 H134" fill="#e0e0e0" stroke="#e0e0e0" stroke-width="0"/>
		<rect x="167" y="152" width="134" height="50" fill="none" rx="14" stroke="#878787" stroke-width="2"/>
		<line x1="167" y1="177" x2="301" y2="177" stroke="#878787" stroke-width="1"/>
		<text x="175" y="169.75" fill="#000000" font-family="Verdana" font-size="12">PLAYS_DUEL_USER</text>
	</g>
	<text x="208" y="144" fill="#b2182b" font-family="Verdana" font-size="12">1,1</text>
	<text x="239" y="219" fill="#b2182b" font-family="Verdana" font-size="12">0,N</text>
</g>

<!-- Association HAS -->
<g>
	<line x1="566" y1="278" x2="395" y2="177" stroke="#878787" stroke-width="2"/>
	<line x1="234" y1="68" x2="395" y2="177" stroke="#878787" stroke-width="2"/>
	<g>
		<path d="M401 152 a14 14 90 0 1 14 14 V177 h-40 V166 a14 14 90 0 1 14 -14" fill="#bababa" stroke="#bababa" stroke-width="0"/>
		<path d="M415 177 v11 a14 14 90 0 1 -14 14 H389 a14 14 90 0 1 -14 -14 V177 H40" fill="#e0e0e0" stroke="#e0e0e0" stroke-width="0"/>
		<rect x="375" y="152" width="40" height="50" fill="none" rx="14" stroke="#878787" stroke-width="2"/>
		<line x1="375" y1="177" x2="415" y2="177" stroke="#878787" stroke-width="1"/>
		<text x="382" y="169.75" fill="#000000" font-family="Verdana" font-size="12">HAS</text>
	</g>
	<text x="494" y="263.84" fill="#b2182b" font-family="Verdana" font-size="12">1,N</text>
	<text x="284" y="95.65" fill="#b2182b" font-family="Verdana" font-size="12">0,N</text>
</g>

<!-- Association IN_LEADERBOARD_SERVER -->
<g>
	<line x1="566" y1="278" x2="566" y2="177" stroke="#878787" stroke-width="2"/>
	<line x1="566" y1="68" x2="566" y2="177" stroke="#878787" stroke-width="2"/>
	<g>
		<path d="M644 152 a14 14 90 0 1 14 14 V177 h-184 V166 a14 14 90 0 1 14 -14" fill="#bababa" stroke="#bababa" stroke-width="0"/>
		<path d="M658 177 v11 a14 14 90 0 1 -14 14 H488 a14 14 90 0 1 -14 -14 V177 H184" fill="#e0e0e0" stroke="#e0e0e0" stroke-width="0"/>
		<rect x="474" y="152" width="184" height="50" fill="none" rx="14" stroke="#878787" stroke-width="2"/>
		<line x1="474" y1="177" x2="658" y2="177" stroke="#878787" stroke-width="1"/>
		<text x="481" y="169.75" fill="#000000" font-family="Verdana" font-size="12">IN_LEADERBOARD_SERVER</text>
	</g>
	<text x="571" y="236" fill="#b2182b" font-family="Verdana" font-size="12">1,N</text>
	<text x="571" y="127" fill="#b2182b" font-family="Verdana" font-size="12">0,N</text>
</g>

<!-- Association PLAYS_SOLO_GAME -->
<g>
	<line x1="395" y1="387" x2="78" y2="278" stroke="#878787" stroke-width="2"/>
	<line x1="78" y1="177" x2="78" y2="278" stroke="#878787" stroke-width="2"/>
	<g>
		<path d="M133 253 a14 14 90 0 1 14 14 V278 h-138 V267 a14 14 90 0 1 14 -14" fill="#bababa" stroke="#bababa" stroke-width="0"/>
		<path d="M147 278 v11 a14 14 90 0 1 -14 14 H23 a14 14 90 0 1 -14 -14 V278 H138" fill="#e0e0e0" stroke="#e0e0e0" stroke-width="0"/>
		<rect x="9" y="253" width="138" height="50" fill="none" rx="14" stroke="#878787" stroke-width="2"/>
		<line x1="9" y1="278" x2="147" y2="278" stroke="#878787" stroke-width="1"/>
		<text x="17" y="270.75" fill="#000000" font-family="Verdana" font-size="12">PLAYS_SOLO_GAME</text>
	</g>
	<text x="329" y="387.56" fill="#b2182b" font-family="Verdana" font-size="12">1,1</text>
	<text x="83" y="236" fill="#b2182b" font-family="Verdana" font-size="12">0,N</text>
</g>

<!-- Association PLAYS_DUEL_GAME -->
<g>
	<line x1="395" y1="387" x2="395" y2="278" stroke="#878787" stroke-width="2"/>
	<line x1="234" y1="278" x2="395" y2="278" stroke="#878787" stroke-width="2"/>
	<g>
		<path d="M449 253 a14 14 90 0 1 14 14 V278 h-136 V267 a14 14 90 0 1 14 -14" fill="#bababa" stroke="#bababa" stroke-width="0"/>
		<path d="M463 278 v11 a14 14 90 0 1 -14 14 H341 a14 14 90 0 1 -14 -14 V278 H136" fill="#e0e0e0" stroke="#e0e0e0" stroke-width="0"/>
		<rect x="327" y="253" width="136" height="50" fill="none" rx="14" stroke="#878787" stroke-width="2"/>
		<line x1="327" y1="278" x2="463" y2="278" stroke="#878787" stroke-width="1"/>
		<text x="334" y="270.75" fill="#000000" font-family="Verdana" font-size="12">PLAYS_DUEL_GAME</text>
	</g>
	<text x="400" y="337" fill="#b2182b" font-family="Verdana" font-size="12">1,1</text>
	<text x="294" y="295" fill="#b2182b" font-family="Verdana" font-size="12">0,N</text>
</g>

<!-- Association GENERATES_LINK -->
<g>
	<line x1="395" y1="387" x2="234" y2="387" stroke="#878787" stroke-width="2"/>
	<line x1="78" y1="387" x2="234" y2="387" stroke="#878787" stroke-width="2"/>
	<g>
		<path d="M283 362 a14 14 90 0 1 14 14 V387 h-126 V376 a14 14 90 0 1 14 -14" fill="#bababa" stroke="#bababa" stroke-width="0"/>
		<path d="M297 387 v11 a14 14 90 0 1 -14 14 H185 a14 14 90 0 1 -14 -14 V387 H126" fill="#e0e0e0" stroke="#e0e0e0" stroke-width="0"/>
		<rect x="171" y="362" width="126" height="50" fill="none" rx="14" stroke="#878787" stroke-width="2"/>
		<line x1="171" y1="387" x2="297" y2="387" stroke="#878787" stroke-width="1"/>
		<text x="179" y="379.75" fill="#000000" font-family="Verdana" font-size="12">GENERATES_LINK</text>
	</g>
	<text x="328" y="404" fill="#b2182b" font-family="Verdana" font-size="12">1,N</text>
	<text x="129" y="404" fill="#b2182b" font-family="Verdana" font-size="12">1,1</text>
</g>

<!-- Association BELONGS_TO -->
<g>
	<line x1="566" y1="278" x2="566" y2="387" stroke="#878787" stroke-width="2"/>
	<line x1="395" y1="387" x2="566" y2="387" stroke="#878787" stroke-width="2"/>
	<g>
		<path d="M601 362 a14 14 90 0 1 14 14 V387 h-98 V376 a14 14 90 0 1 14 -14" fill="#bababa" stroke="#bababa" stroke-width="0"/>
		<path d="M615 387 v11 a14 14 90 0 1 -14 14 H531 a14 14 90 0 1 -14 -14 V387 H98" fill="#e0e0e0" stroke="#e0e0e0" stroke-width="0"/>
		<rect x="517" y="362" width="98" height="50" fill="none" rx="14" stroke="#878787" stroke-width="2"/>
		<line x1="517" y1="387" x2="615" y2="387" stroke="#878787" stroke-width="1"/>
		<text x="524" y="379.75" fill="#000000" font-family="Verdana" font-size="12">BELONGS_TO</text>
	</g>
	<text x="571" y="329" fill="#b2182b" font-family="Verdana" font-size="12">1,N</text>
	<text x="440" y="404" fill="#b2182b" font-family="Verdana" font-size="12">0,N</text>
</g>

<!-- Entity USERS -->
<g>
	<g>
		<rect x="189" y="9" width="90" height="25" fill="#f4a582" stroke="none" stroke-width="0" opacity="1"/>
		<rect x="189" y="34" width="90" height="93" fill="#fddbc7" stroke="none" stroke-width="0" opacity="1"/>
		<rect x="189" y="9" width="90" height="118" fill="none" stroke="#d6604d" stroke-width="2" opacity="1"/>
		<line x1="189" y1="34" x2="279" y2="34" stroke="#d6604d" stroke-width="1"/>
	</g>
	<text x="213" y="26.75" fill="#000000" font-family="Verdana" font-size="12">USERS</text>
	<text x="194" y="51.8" fill="#000000" font-family="Verdana" font-size="12">user_id</text>
	<line x1="194" y1="54" x2="240" y2="54" stroke="#000000" stroke-width="1"/>
	<text x="194" y="68.8" fill="#000000" font-family="Verdana" font-size="12">username</text>
	<text x="194" y="85.8" fill="#000000" font-family="Verdana" font-size="12">discriminator</text>
	<text x="194" y="102.8" fill="#000000" font-family="Verdana" font-size="12">avatar_url</text>
	<text x="194" y="119.8" fill="#000000" font-family="Verdana" font-size="12">created_at</text>
</g>

<!-- Entity LEADERBOARDS -->
<g>
	<g>
		<rect x="511" y="26" width="110" height="25" fill="#f4a582" stroke="none" stroke-width="0" opacity="1"/>
		<rect x="511" y="51" width="110" height="59" fill="#fddbc7" stroke="none" stroke-width="0" opacity="1"/>
		<rect x="511" y="26" width="110" height="84" fill="none" stroke="#d6604d" stroke-width="2" opacity="1"/>
		<line x1="511" y1="51" x2="621" y2="51" stroke="#d6604d" stroke-width="1"/>
	</g>
	<text x="516" y="43.75" fill="#000000" font-family="Verdana" font-size="12">LEADERBOARDS</text>
	<text x="516" y="68.8" fill="#000000" font-family="Verdana" font-size="12">total_score</text>
	<line x1="516" y1="71" x2="584" y2="71" stroke="#000000" stroke-width="1"/>
	<text x="516" y="85.8" fill="#000000" font-family="Verdana" font-size="12">total_wins</text>
	<text x="516" y="102.8" fill="#000000" font-family="Verdana" font-size="12">rank</text>
</g>

<!-- Entity SOLO_MATCHES -->
<g>
	<g>
		<rect x="22" y="135" width="112" height="25" fill="#f4a582" stroke="none" stroke-width="0" opacity="1"/>
		<rect x="22" y="160" width="112" height="59" fill="#fddbc7" stroke="none" stroke-width="0" opacity="1"/>
		<rect x="22" y="135" width="112" height="84" fill="none" stroke="#d6604d" stroke-width="2" opacity="1"/>
		<line x1="22" y1="160" x2="134" y2="160" stroke="#d6604d" stroke-width="1"/>
	</g>
	<text x="28" y="152.75" fill="#000000" font-family="Verdana" font-size="12">SOLO_MATCHES</text>
	<text x="27" y="177.8" fill="#000000" font-family="Verdana" font-size="12">match_id</text>
	<line x1="27" y1="180" x2="84" y2="180" stroke="#000000" stroke-width="1"/>
	<text x="27" y="194.8" fill="#000000" font-family="Verdana" font-size="12">score</text>
	<text x="27" y="211.8" fill="#000000" font-family="Verdana" font-size="12">match_time</text>
</g>

<!-- Entity DUEL_MATCHES -->
<g>
	<g>
		<rect x="179" y="227" width="110" height="25" fill="#f4a582" stroke="none" stroke-width="0" opacity="1"/>
		<rect x="179" y="252" width="110" height="77" fill="#fddbc7" stroke="none" stroke-width="0" opacity="1"/>
		<rect x="179" y="227" width="110" height="102" fill="none" stroke="#d6604d" stroke-width="2" opacity="1"/>
		<line x1="179" y1="252" x2="289" y2="252" stroke="#d6604d" stroke-width="1"/>
	</g>
	<text x="184" y="244.75" fill="#000000" font-family="Verdana" font-size="12">DUEL_MATCHES</text>
	<text x="184" y="269.8" fill="#000000" font-family="Verdana" font-size="12">duel_id</text>
	<line x1="184" y1="272" x2="229" y2="272" stroke="#000000" stroke-width="1"/>
	<text x="184" y="286.8" fill="#000000" font-family="Verdana" font-size="12">score_user_1</text>
	<text x="184" y="303.8" fill="#000000" font-family="Verdana" font-size="12">score_user_2</text>
	<text x="184" y="320.8" fill="#000000" font-family="Verdana" font-size="12">match_time</text>
</g>

<!-- Entity SERVERS -->
<g>
	<g>
		<rect x="521" y="244" width="90" height="25" fill="#f4a582" stroke="none" stroke-width="0" opacity="1"/>
		<rect x="521" y="269" width="90" height="43" fill="#fddbc7" stroke="none" stroke-width="0" opacity="1"/>
		<rect x="521" y="244" width="90" height="68" fill="none" stroke="#d6604d" stroke-width="2" opacity="1"/>
		<line x1="521" y1="269" x2="611" y2="269" stroke="#d6604d" stroke-width="1"/>
	</g>
	<text x="538" y="261.75" fill="#000000" font-family="Verdana" font-size="12">SERVERS</text>
	<text x="526" y="286.8" fill="#000000" font-family="Verdana" font-size="12">server_id</text>
	<line x1="526" y1="289" x2="583" y2="289" stroke="#000000" stroke-width="1"/>
	<text x="526" y="303.8" fill="#000000" font-family="Verdana" font-size="12">server_name</text>
</g>

<!-- Entity GAME_LINKS -->
<g>
	<g>
		<rect x="32" y="328" width="92" height="25" fill="#f4a582" stroke="none" stroke-width="0" opacity="1"/>
		<rect x="32" y="353" width="92" height="93" fill="#fddbc7" stroke="none" stroke-width="0" opacity="1"/>
		<rect x="32" y="328" width="92" height="118" fill="none" stroke="#d6604d" stroke-width="2" opacity="1"/>
		<line x1="32" y1="353" x2="124" y2="353" stroke="#d6604d" stroke-width="1"/>
	</g>
	<text x="38" y="345.75" fill="#000000" font-family="Verdana" font-size="12">GAME_LINKS</text>
	<text x="37" y="370.8" fill="#000000" font-family="Verdana" font-size="12">link_id</text>
	<line x1="37" y1="373" x2="78" y2="373" stroke="#000000" stroke-width="1"/>
	<text x="37" y="387.8" fill="#000000" font-family="Verdana" font-size="12">link_url</text>
	<text x="37" y="404.8" fill="#000000" font-family="Verdana" font-size="12">link_type</text>
	<text x="37" y="421.8" fill="#000000" font-family="Verdana" font-size="12">created_at</text>
	<text x="37" y="438.8" fill="#000000" font-family="Verdana" font-size="12">is_active</text>
</g>

<!-- Entity GAMES -->
<g>
	<g>
		<rect x="355" y="345" width="80" height="25" fill="#f4a582" stroke="none" stroke-width="0" opacity="1"/>
		<rect x="355" y="370" width="80" height="59" fill="#fddbc7" stroke="none" stroke-width="0" opacity="1"/>
		<rect x="355" y="345" width="80" height="84" fill="none" stroke="#d6604d" stroke-width="2" opacity="1"/>
		<line x1="355" y1="370" x2="435" y2="370" stroke="#d6604d" stroke-width="1"/>
	</g>
	<text x="373" y="362.75" fill="#000000" font-family="Verdana" font-size="12">GAMES</text>
	<text x="360" y="387.8" fill="#000000" font-family="Verdana" font-size="12">game_id</text>
	<line x1="360" y1="390" x2="413" y2="390" stroke="#000000" stroke-width="1"/>
	<text x="360" y="404.8" fill="#000000" font-family="Verdana" font-size="12">game_type</text>
	<text x="360" y="421.8" fill="#000000" font-family="Verdana" font-size="12">start_time</text>
</g>
</svg>